<svg xmlns="http://www.w3.org/2000/svg" width="1200" height="1200" preserveAspectRatio="xMidYMid meet" version="1.0" viewBox="0 0 12000 12000"><g id="layer101" fill="#393e46" stroke="none"><path d="M0 6000 l0 -6000 6000 0 6000 0 0 6000 0 6000 -6000 0 -6000 0 0 -6000z"/></g><g id="layer102" fill="#e0e1e1" stroke="none"><path d="M0 6000 l0 -6000 6000 0 6000 0 0 6000 0 6000 -6000 0 -6000 0 0 -6000z m4208 4588 c18 -5 53 -25 77 -44 l45 -34 0 40 0 40 40 0 40 0 -2 -277 -3 -278 -37 -3 c-37 -3 -37 -3 -40 39 l-3 42 -33 -27 c-115 -98 -287 -84 -390 29 -87 95 -106 209 -54 320 67 140 208 201 360 153z m1579 -14 c57 -27 102 -73 135 -137 33 -64 31 -184 -4 -252 -64 -123 -208 -190 -334 -156 -88 24 -181 111 -205 194 -13 45 -13 136 1 187 18 65 117 161 190 183 71 21 149 15 217 -19z m1179 21 c27 -8 71 -28 97 -45 26 -16 50 -30 52 -30 3 0 5 16 5 35 0 33 2 35 35 35 l35 0 -2 -442 -3 -443 -32 -3 -33 -3 0 205 c0 113 -3 206 -7 206 -3 0 -22 -12 -41 -26 -148 -113 -354 -66 -438 99 -82 161 9 366 184 413 63 17 89 17 148 -1z m1216 -17 c25 -11 56 -31 69 -44 31 -33 39 -30 39 16 0 39 1 40 35 40 l35 0 0 -280 0 -280 -35 0 c-34 0 -35 1 -35 40 0 22 -2 40 -4 40 -2 0 -27 -16 -56 -35 -65 -44 -120 -59 -191 -52 -101 9 -190 71 -236 165 -36 74 -38 175 -4 245 72 148 231 208 383 145z m-5102 -319 c0 -245 3 -330 11 -327 7 2 32 51 56 108 79 187 120 283 153 363 l32 78 45 -3 46 -3 44 -105 c86 -203 121 -286 153 -362 56 -137 60 -122 60 252 l0 330 35 0 35 0 -2 -442 -3 -443 -36 -3 -36 -3 -47 113 c-204 482 -239 564 -246 571 -4 4 -16 -14 -27 -40 -77 -180 -216 -510 -240 -568 -28 -67 -31 -70 -66 -73 l-37 -3 0 445 0 446 35 0 35 0 0 -331z m1470 188 c0 -158 11 -213 54 -270 27 -35 89 -72 139 -82 23 -5 27 -10 27 -40 0 -28 -4 -35 -20 -35 -31 0 -114 35 -152 64 -19 14 -38 26 -41 26 -4 0 -7 -18 -7 -40 0 -39 -1 -40 -35 -40 l-35 0 0 280 0 280 35 0 35 0 0 -143z m360 8 c0 -74 3 -135 8 -135 4 0 66 61 137 136 l130 136 43 -4 43 -3 -145 -155 c-80 -85 -146 -157 -145 -160 0 -3 58 -57 129 -120 l130 -115 -51 -3 -50 -3 -106 95 c-59 53 -110 96 -115 96 -4 0 -8 -117 -8 -261 l0 -260 -32 3 -33 3 -3 443 -2 442 35 0 35 0 0 -135z m1618 -307 l-3 -443 -35 0 -35 0 -3 430 c-1 237 0 436 3 443 2 6 20 12 40 12 l35 0 -2 -442z m1172 407 l0 -35 -175 0 -175 0 137 -162 c75 -90 154 -182 175 -205 31 -34 38 -50 38 -83 l0 -40 -220 0 -220 0 0 35 0 35 170 0 c94 0 170 3 170 8 0 4 -52 68 -116 142 -216 253 -224 264 -224 304 l0 36 220 0 220 0 0 -35z m800 -115 c0 -172 11 -238 48 -282 32 -38 95 -68 142 -68 50 0 113 32 144 72 35 47 46 114 46 284 l0 144 36 0 36 0 -4 -187 c-4 -209 -10 -232 -72 -301 -81 -89 -214 -107 -316 -44 -28 18 -53 32 -56 32 -2 0 -4 -13 -4 -30 0 -28 -3 -30 -35 -30 l-35 0 0 280 0 280 35 0 35 0 0 -150z m-2007 -1244 c548 -91 1021 -289 1441 -606 512 -384 897 -907 1113 -1510 179 -502 230 -1069 143 -1605 -145 -892 -656 -1679 -1415 -2182 -453 -300 -952 -472 -1505 -518 -221 -19 -364 -19 -560 -1 -412 38 -751 131 -1121 308 -318 152 -594 349 -868 621 -552 547 -878 1238 -946 2007 -19 207 -19 339 0 560 54 648 280 1219 685 1736 109 140 374 406 515 518 444 352 953 580 1494 666 212 34 287 39 586 35 244 -3 300 -7 438 -29z"/><path d="M4030 10519 c-85 -34 -134 -110 -134 -209 0 -90 39 -155 119 -198 42 -23 150 -22 194 2 165 88 158 330 -11 400 -42 18 -130 20 -168 5z"/><path d="M5620 10530 c-190 -33 -247 -289 -88 -396 93 -63 200 -53 279 26 151 151 20 406 -191 370z"/><path d="M6837 10525 c-98 -25 -163 -111 -161 -215 1 -124 93 -214 219 -214 114 -1 204 79 213 188 6 80 -4 117 -44 165 -61 71 -141 98 -227 76z"/><path d="M7975 10513 c-45 -23 -96 -74 -111 -110 -20 -46 -17 -140 5 -189 36 -80 142 -135 228 -119 220 41 257 318 56 419 -41 21 -138 20 -178 -1z"/><path d="M5745 9029 c-199 -15 -439 -62 -645 -126 -1015 -313 -1801 -1142 -2053 -2164 -107 -434 -119 -915 -32 -1344 55 -271 125 -475 255 -740 416 -853 1232 -1474 2160 -1646 354 -65 825 -65 1140 0 435 90 757 221 1095 444 165 109 247 174 426 339 405 373 728 929 864 1488 131 544 106 1147 -72 1680 -360 1078 -1298 1871 -2418 2044 -220 34 -480 43 -720 25z m-964 -1979 c18 -10 19 -28 19 -608 l0 -597 -78 -240 c-221 -680 -256 -785 -264 -785 -4 0 -8 499 -8 1110 0 1046 1 1110 18 1119 23 14 288 14 313 1z m846 2 c13 -8 2 -53 -87 -327 -21 -66 -75 -237 -120 -380 -45 -143 -99 -314 -120 -380 -35 -108 -181 -570 -341 -1080 -33 -104 -81 -252 -105 -327 l-46 -138 -149 0 c-128 0 -149 2 -149 16 0 8 30 108 66 222 36 114 81 255 99 313 38 119 168 527 345 1084 65 204 157 494 205 645 103 325 112 348 133 353 30 8 257 7 269 -1z m816 -4 c16 -12 17 -100 15 -1318 l-3 -1305 -185 0 -184 0 -13 35 c-7 19 -39 121 -72 225 -33 105 -114 361 -181 570 -67 209 -148 466 -181 570 -33 105 -69 217 -80 249 -10 33 -19 74 -19 91 0 38 122 407 137 412 5 2 29 -54 51 -124 23 -70 71 -218 107 -328 210 -646 260 -795 267 -795 4 0 8 385 8 855 0 803 1 855 18 864 26 15 294 14 315 -1z m1248 2 c17 -10 19 -22 19 -138 0 -86 -4 -132 -12 -140 -8 -8 -52 -12 -130 -12 l-118 0 2 -1022 3 -1023 125 -5 125 -5 0 -140 0 -140 -424 -3 c-333 -2 -426 0 -433 10 -9 15 -11 239 -2 262 5 13 26 16 130 16 l124 0 0 1025 0 1025 -118 0 c-78 0 -122 4 -130 12 -8 8 -12 53 -12 134 0 98 3 126 16 138 13 14 65 16 415 16 257 0 407 -4 420 -10z"/></g><g id="layer103" fill="#eee" stroke="none"><path d="M0 6000 l0 -6000 6000 0 6000 0 0 6000 0 6000 -6000 0 -6000 0 0 -6000z m4211 4592 c40 -10 89 -40 89 -53 0 -5 4 -9 9 -9 6 0 11 14 13 32 3 30 5 32 46 33 l42 1 0 -277 c0 -153 -3 -280 -7 -282 -5 -3 -24 -7 -43 -9 -33 -3 -35 -1 -38 29 -3 35 -19 36 -55 4 -63 -54 -257 -50 -319 5 -13 12 -31 24 -40 27 -10 4 -18 13 -18 22 0 8 -4 15 -10 15 -8 0 -51 80 -56 105 -1 6 -3 12 -4 15 -6 15 -4 123 3 127 4 2 7 15 7 27 0 13 7 29 15 36 8 6 17 21 21 33 10 31 77 93 119 110 61 25 153 29 226 9z m1539 6 c8 -1 26 -9 39 -20 13 -10 28 -18 33 -18 14 0 76 -66 98 -105 11 -20 20 -49 20 -65 0 -16 5 -32 10 -35 6 -3 10 -21 10 -40 0 -19 -4 -37 -10 -40 -5 -3 -10 -19 -10 -36 0 -37 -26 -83 -75 -134 -47 -49 -130 -83 -210 -86 -50 -2 -146 25 -161 46 -6 8 -16 15 -21 15 -6 0 -19 12 -28 28 -10 15 -24 31 -32 35 -7 4 -13 12 -13 16 0 5 -7 26 -17 47 -19 46 -21 165 -4 209 27 65 44 95 56 95 7 0 15 8 17 18 5 17 88 66 115 67 6 0 15 4 19 7 4 4 39 5 78 2 39 -2 78 -5 86 -6z m1230 -1 c8 -1 41 -19 73 -40 31 -20 60 -37 62 -37 3 0 5 15 5 34 0 31 3 34 36 38 20 2 38 0 40 -6 2 -6 3 -207 2 -446 l-3 -435 -37 -3 -38 -3 0 205 c0 131 -4 206 -10 206 -5 0 -10 -5 -10 -10 0 -6 -8 -14 -17 -17 -9 -4 -25 -15 -35 -25 -10 -10 -27 -18 -37 -18 -11 0 -23 -5 -26 -11 -4 -6 -13 -8 -20 -5 -7 2 -16 1 -21 -4 -16 -14 -155 9 -182 30 -13 11 -29 20 -34 20 -17 0 -82 75 -96 110 -28 74 -33 105 -29 172 4 52 10 75 26 92 12 12 21 28 21 36 0 16 39 60 54 60 5 0 20 10 34 23 40 38 121 49 242 34z m1168 -1 c9 -1 36 -14 59 -29 24 -15 47 -27 53 -27 5 0 10 -7 10 -15 0 -8 5 -15 10 -15 6 0 10 18 10 40 0 39 1 40 35 40 l35 0 0 -280 0 -280 -24 0 c-13 0 -31 -3 -39 -6 -12 -4 -14 3 -10 40 3 25 2 46 -2 46 -4 0 -27 -15 -50 -34 -23 -19 -58 -38 -78 -41 -21 -4 -39 -10 -41 -14 -6 -8 -85 -6 -111 3 -106 38 -205 113 -205 155 0 10 -6 26 -14 37 -8 10 -12 29 -10 40 3 12 1 25 -5 28 -14 9 -14 53 -1 61 6 3 10 15 10 26 0 39 64 156 95 173 11 6 36 20 55 31 19 12 53 22 75 24 21 1 41 4 44 6 2 3 22 2 43 -2 22 -3 47 -6 56 -7z m-5092 -6 l24 0 0 -332 c0 -332 0 -333 20 -308 11 14 20 30 20 36 0 6 12 33 26 59 15 26 28 54 29 63 2 23 20 68 52 126 14 27 27 56 28 65 2 21 20 64 53 128 27 53 27 53 75 53 43 0 48 -3 57 -27 6 -16 15 -36 21 -46 6 -11 8 -21 5 -24 -3 -3 8 -31 24 -62 34 -66 53 -110 55 -132 2 -14 20 -52 71 -151 8 -15 13 -30 12 -35 -5 -16 25 -73 39 -73 12 0 13 51 11 333 l-3 332 38 0 37 0 -2 -445 -3 -445 -33 -3 c-24 -3 -38 3 -52 20 -11 13 -20 28 -20 33 0 6 -7 23 -15 39 -8 15 -13 31 -11 35 2 3 -7 26 -19 51 -46 89 -65 132 -61 139 2 3 -7 26 -19 51 -47 90 -65 133 -60 138 2 3 -8 30 -24 61 -16 31 -35 71 -43 89 l-15 33 -14 -33 c-8 -18 -13 -37 -11 -41 1 -5 -4 -20 -12 -35 -50 -97 -75 -150 -71 -154 5 -5 -16 -54 -60 -138 -13 -25 -24 -55 -24 -66 -1 -12 -8 -27 -16 -34 -8 -7 -12 -17 -9 -22 3 -5 -1 -17 -9 -26 -9 -9 -19 -30 -23 -47 -4 -16 -16 -44 -27 -62 -15 -27 -25 -33 -53 -33 l-34 0 0 434 c0 239 -3 442 -7 452 -5 14 -3 16 11 11 10 -4 29 -7 42 -7z m1856 -130 c-2 -77 0 -140 4 -140 12 0 94 82 94 94 0 5 32 39 71 75 39 36 74 74 78 85 6 16 18 20 64 20 32 1 57 -1 57 -3 0 -2 -11 -12 -25 -23 -14 -11 -25 -24 -25 -29 0 -6 -36 -44 -80 -86 -44 -41 -80 -80 -80 -85 0 -5 -21 -29 -47 -52 l-47 -43 54 -51 c30 -28 60 -51 65 -52 6 0 28 -20 48 -45 21 -25 44 -45 51 -45 8 0 21 -11 29 -24 l16 -24 -52 -4 c-49 -4 -54 -2 -80 29 -16 18 -35 33 -42 33 -7 0 -28 18 -45 40 -17 22 -38 40 -45 40 -8 0 -22 11 -33 25 -11 14 -23 25 -26 25 -3 0 -6 -117 -6 -261 l0 -260 -32 3 -33 3 -3 442 -2 442 32 4 c18 2 35 5 38 5 3 1 4 -61 2 -138z m1594 130 l24 0 -2 -442 -3 -443 -35 0 -35 0 -3 449 c-2 406 -1 448 14 442 8 -3 27 -6 40 -6z m2000 -157 c0 -184 6 -233 29 -246 8 -4 15 -14 15 -21 0 -20 31 -43 67 -51 18 -3 35 -11 38 -16 8 -12 58 -12 71 0 5 5 24 13 43 18 49 13 88 66 102 137 6 32 9 122 7 200 l-3 142 40 -2 40 -2 3 -162 c2 -110 -1 -167 -9 -176 -6 -8 -9 -21 -5 -29 7 -20 -49 -108 -95 -151 -38 -34 -95 -54 -159 -54 -60 0 -148 28 -160 51 -16 28 -30 23 -30 -11 0 -28 -3 -30 -35 -30 l-35 0 0 279 0 280 33 4 c17 2 34 5 37 5 3 1 5 -73 6 -165z m-3954 -8 c2 -114 7 -168 16 -177 6 -6 12 -19 12 -28 0 -8 9 -21 20 -28 11 -7 20 -19 20 -27 0 -8 7 -15 15 -15 9 0 18 -7 21 -15 4 -8 14 -15 23 -15 9 0 22 -5 28 -11 5 -5 25 -11 42 -11 23 -1 30 -5 26 -15 -3 -8 -5 -25 -5 -38 0 -25 -27 -42 -43 -26 -5 5 -15 7 -22 5 -7 -3 -16 -1 -20 5 -3 6 -15 11 -26 11 -10 0 -27 8 -37 18 -10 10 -26 21 -35 25 -9 3 -17 11 -17 17 0 5 -5 10 -11 10 -8 0 -10 -15 -6 -46 4 -37 2 -44 -10 -40 -8 3 -26 6 -39 6 l-24 0 0 280 0 280 34 0 34 0 4 -165z m3148 130 l0 -35 -177 0 -178 -1 38 -32 c20 -18 37 -38 37 -44 0 -7 11 -20 25 -29 14 -9 25 -22 25 -30 0 -7 11 -21 25 -30 14 -9 25 -22 25 -29 0 -7 16 -25 35 -39 19 -15 35 -33 35 -40 0 -7 27 -43 61 -79 53 -59 60 -70 57 -102 l-3 -36 -224 0 -223 0 -2 38 -2 38 173 -3 c171 -3 201 2 153 28 -11 6 -20 17 -20 24 0 8 -16 26 -35 40 -19 15 -35 32 -35 39 0 14 -100 132 -136 160 -13 10 -24 25 -24 32 0 8 -9 20 -21 29 -29 20 -49 62 -49 102 l0 34 220 0 220 0 0 -35z m-1462 -1329 c6 -4 31 -6 54 -5 24 1 85 -6 136 -15 51 -9 98 -14 103 -10 5 3 16 0 24 -6 8 -6 23 -9 34 -5 10 3 22 1 26 -5 4 -6 14 -9 22 -6 9 4 21 2 28 -4 7 -6 28 -12 47 -14 18 -2 40 -6 48 -9 34 -14 119 -35 123 -31 2 2 17 -2 33 -11 16 -8 39 -15 51 -15 12 0 25 -5 28 -10 4 -6 10 -8 14 -5 5 2 22 -2 38 -10 28 -14 92 -39 228 -89 33 -12 72 -30 87 -40 15 -9 49 -26 76 -36 27 -10 65 -28 83 -39 19 -12 45 -26 59 -33 14 -7 38 -23 53 -35 16 -13 35 -23 42 -23 8 0 26 -11 41 -25 15 -14 33 -25 40 -25 7 0 27 -13 45 -30 18 -16 48 -37 66 -45 18 -9 33 -20 33 -25 0 -6 6 -10 14 -10 8 0 28 -13 46 -30 18 -16 36 -30 41 -30 4 0 13 -9 19 -20 6 -11 17 -20 25 -20 8 0 26 -16 41 -35 14 -19 31 -35 36 -35 5 0 26 -17 48 -37 21 -21 70 -67 109 -103 39 -36 70 -70 71 -77 0 -6 20 -29 45 -51 25 -22 45 -44 45 -50 0 -6 14 -20 30 -32 17 -12 30 -28 30 -35 0 -8 9 -19 20 -25 11 -6 20 -17 20 -25 0 -8 5 -15 10 -15 6 0 14 -8 18 -17 12 -30 64 -103 73 -103 4 0 16 -16 25 -35 9 -19 20 -35 24 -35 10 0 39 -48 97 -160 25 -47 56 -99 69 -117 13 -17 24 -38 24 -46 0 -8 9 -26 20 -40 11 -14 20 -31 20 -39 0 -7 11 -33 25 -57 14 -23 25 -48 25 -55 0 -7 16 -45 36 -85 20 -40 33 -75 30 -78 -3 -3 6 -27 20 -54 14 -26 23 -53 20 -58 -4 -5 -2 -12 4 -16 5 -3 10 -16 10 -28 0 -12 6 -33 13 -47 7 -14 14 -38 15 -54 1 -16 9 -42 17 -59 8 -16 12 -34 9 -39 -3 -5 0 -16 7 -24 6 -8 9 -17 6 -21 -4 -3 -2 -14 4 -24 5 -10 12 -45 15 -76 3 -32 10 -63 16 -70 5 -7 7 -16 4 -21 -3 -5 -1 -36 4 -68 22 -135 30 -261 29 -459 -2 -264 -4 -307 -23 -429 -9 -54 -13 -102 -10 -108 3 -5 2 -14 -4 -21 -8 -11 -36 -144 -37 -177 0 -8 -3 -19 -6 -25 -9 -14 -34 -118 -31 -129 2 -4 -2 -14 -8 -20 -5 -7 -7 -16 -3 -19 3 -4 1 -12 -5 -19 -6 -8 -27 -63 -48 -123 -20 -61 -43 -122 -50 -136 -7 -15 -10 -29 -7 -33 3 -3 -1 -14 -10 -23 -8 -10 -19 -31 -23 -48 -3 -16 -12 -37 -19 -45 -6 -8 -22 -37 -34 -65 -12 -27 -27 -57 -32 -65 -5 -8 -16 -31 -25 -50 -9 -19 -20 -42 -25 -50 -5 -8 -15 -30 -23 -47 -8 -18 -19 -33 -24 -33 -5 0 -21 -25 -37 -55 -15 -30 -31 -55 -35 -55 -5 0 -13 -13 -19 -30 -5 -16 -14 -30 -20 -30 -5 0 -19 -20 -31 -45 -12 -25 -26 -45 -31 -45 -5 0 -9 -7 -9 -15 0 -8 -9 -19 -20 -25 -11 -6 -20 -17 -20 -25 0 -8 -9 -19 -20 -25 -11 -6 -20 -17 -20 -25 0 -8 -9 -19 -20 -25 -11 -6 -20 -16 -20 -22 0 -6 -18 -26 -40 -45 -22 -19 -40 -38 -40 -42 0 -5 -53 -59 -117 -122 -64 -63 -133 -131 -154 -152 -21 -20 -43 -37 -48 -37 -5 0 -19 -13 -31 -30 -12 -17 -27 -30 -35 -30 -7 0 -27 -13 -43 -30 -17 -16 -34 -30 -39 -30 -4 0 -28 -18 -52 -40 -24 -22 -48 -40 -53 -40 -5 0 -26 -13 -46 -29 -46 -36 -91 -63 -161 -96 -30 -14 -70 -37 -87 -50 -18 -14 -39 -25 -47 -25 -8 0 -25 -8 -38 -18 -13 -10 -46 -28 -74 -41 -27 -13 -63 -30 -78 -37 -16 -8 -34 -14 -40 -14 -14 0 -135 -49 -184 -75 -18 -9 -37 -14 -42 -11 -5 4 -12 2 -16 -4 -3 -5 -15 -10 -25 -10 -10 0 -31 -5 -47 -12 -15 -7 -32 -12 -38 -13 -22 -2 -121 -28 -130 -34 -5 -3 -19 -6 -30 -7 -22 -1 -131 -23 -155 -31 -8 -3 -37 -7 -63 -9 -26 -2 -56 -8 -66 -13 -10 -6 -27 -8 -38 -5 -12 3 -24 1 -27 -4 -3 -6 -24 -8 -46 -5 -21 3 -47 2 -57 -3 -25 -11 -585 -13 -599 -2 -7 5 -29 8 -50 8 -22 -1 -77 5 -123 14 -47 8 -88 13 -93 10 -5 -3 -15 0 -23 6 -8 6 -23 9 -34 5 -10 -3 -22 -1 -26 5 -3 6 -11 8 -16 4 -5 -3 -16 -1 -23 5 -7 6 -28 12 -47 14 -19 2 -41 6 -49 10 -37 15 -119 35 -124 30 -3 -3 -11 -1 -18 4 -7 6 -51 22 -98 37 -47 15 -96 33 -110 40 -34 18 -103 41 -114 38 -5 -2 -16 4 -25 11 -24 22 -75 45 -87 40 -6 -2 -17 3 -24 12 -7 8 -18 15 -24 15 -19 0 -118 51 -149 77 -16 13 -36 23 -44 23 -9 0 -39 18 -67 39 -28 22 -62 45 -76 51 -37 16 -72 37 -79 47 -8 12 -219 173 -226 173 -3 0 -45 38 -93 85 -48 47 -92 85 -97 85 -13 0 -91 79 -96 97 -2 7 -41 50 -86 97 -46 47 -83 90 -83 95 0 5 -17 26 -38 48 -20 21 -43 51 -51 66 -8 15 -18 27 -22 27 -5 0 -16 16 -25 35 -9 19 -20 35 -25 35 -5 0 -15 15 -22 33 -8 17 -35 60 -61 93 -25 34 -46 67 -46 73 0 6 -9 20 -20 31 -11 11 -20 29 -20 39 0 10 -16 42 -35 71 -19 29 -35 56 -35 62 0 8 -34 83 -110 244 -11 23 -20 50 -20 60 0 11 -9 37 -20 59 -11 22 -20 46 -20 55 0 9 -5 21 -10 26 -6 6 -13 30 -16 54 -3 24 -14 63 -25 87 -10 23 -19 46 -18 50 1 4 0 10 -1 13 -1 3 -4 16 -5 30 -4 48 -28 155 -37 167 -5 7 -7 16 -4 21 3 5 -2 46 -10 93 -9 46 -15 104 -14 127 0 24 -3 49 -8 55 -11 15 -10 567 1 584 4 7 7 32 7 55 -1 24 5 81 14 127 8 47 13 88 10 92 -3 5 0 16 5 26 9 18 33 121 36 158 1 11 4 27 8 35 15 37 35 119 30 124 -3 3 -1 11 4 18 11 14 35 82 38 108 1 8 10 33 20 55 10 22 18 47 19 55 1 8 6 24 13 35 6 11 14 34 17 52 4 17 13 37 21 43 8 6 17 26 20 43 4 18 13 39 20 47 12 13 36 64 81 166 8 17 20 37 29 44 8 7 15 20 15 30 0 10 7 24 17 31 9 8 25 33 35 56 10 23 22 43 26 45 12 4 82 113 82 126 0 6 6 15 13 19 17 11 72 83 80 106 4 9 11 17 17 17 5 0 10 6 10 14 0 8 14 24 30 36 17 12 30 26 30 32 0 13 384 398 398 398 6 0 21 12 34 28 13 15 36 34 51 42 16 8 33 22 38 32 5 10 14 18 19 18 5 0 21 11 36 25 15 14 33 25 40 25 8 0 14 4 14 10 0 5 15 16 34 24 18 8 36 19 40 24 3 6 26 20 51 32 25 12 45 26 45 31 0 6 15 17 33 25 17 9 55 29 82 45 47 27 57 32 88 44 6 3 19 9 27 13 17 10 114 55 245 113 17 7 37 14 46 15 9 0 42 13 73 28 32 15 60 25 63 23 6 -6 93 22 111 36 7 5 15 7 18 4 5 -5 87 15 124 30 8 4 24 7 35 8 31 3 148 26 165 33 8 3 29 7 45 8 17 1 46 5 65 8 19 4 76 9 125 12 50 3 93 9 97 12 9 9 461 7 476 -2z"/><path d="M4043 10518 c-2 -5 -13 -8 -24 -8 -10 0 -19 -5 -19 -10 0 -6 -11 -15 -25 -20 -14 -5 -28 -18 -32 -27 -4 -10 -14 -28 -24 -41 -10 -13 -16 -29 -13 -37 3 -7 1 -16 -5 -20 -16 -9 -13 -75 4 -109 8 -15 15 -32 15 -37 0 -12 77 -89 89 -89 5 0 22 -7 37 -15 16 -8 45 -15 64 -15 19 0 48 7 64 15 15 8 33 15 38 15 12 0 85 75 99 103 17 31 19 144 3 165 -7 9 -14 24 -14 33 0 18 -61 79 -79 79 -7 0 -22 5 -34 12 -24 13 -136 17 -144 6z"/><path d="M5639 10530 c-7 -5 -21 -7 -30 -5 -8 3 -39 -13 -69 -35 -59 -44 -90 -97 -98 -168 -5 -44 14 -122 30 -122 5 0 13 -11 18 -25 5 -14 17 -25 25 -25 9 0 18 -7 21 -15 4 -8 14 -15 24 -15 11 0 21 -4 25 -9 8 -14 93 -25 108 -14 6 5 23 10 36 11 14 0 29 8 33 17 5 8 15 15 23 15 36 0 95 112 95 180 0 40 -49 140 -77 155 -71 40 -89 49 -100 47 -7 -2 -21 2 -31 7 -11 6 -24 6 -33 1z"/><path d="M6807 10517 c-15 -5 -27 -13 -27 -18 0 -5 -11 -14 -25 -19 -17 -6 -35 -30 -56 -76 -26 -55 -30 -74 -25 -110 3 -24 14 -57 24 -72 10 -15 22 -36 28 -46 6 -11 19 -24 30 -30 10 -6 29 -19 42 -28 13 -9 29 -15 37 -12 7 3 16 1 20 -5 9 -16 58 -13 91 4 16 8 36 15 45 15 9 0 19 7 23 15 3 8 12 15 21 15 8 0 15 6 15 14 0 7 9 20 21 27 11 8 22 28 25 44 15 95 16 126 4 140 -6 8 -9 18 -6 23 6 10 -65 92 -79 92 -5 0 -17 8 -27 17 -21 19 -135 26 -181 10z"/><path d="M7972 10511 c-40 -21 -112 -99 -106 -115 3 -8 1 -17 -5 -21 -17 -10 -14 -118 4 -141 8 -10 15 -26 15 -35 0 -18 40 -59 58 -59 6 0 15 -7 20 -16 5 -9 21 -16 36 -16 14 0 29 -4 32 -9 8 -14 59 -11 90 6 16 8 37 15 46 15 23 0 88 58 88 79 0 9 7 27 16 40 19 27 22 89 7 143 -10 33 -38 64 -109 121 -31 24 -150 30 -192 8z"/><path d="M5848 9035 c-6 -6 -125 -15 -191 -15 -21 0 -43 -3 -50 -7 -7 -4 -25 -9 -42 -9 -59 -3 -130 -16 -142 -26 -7 -5 -17 -7 -23 -3 -6 4 -17 1 -25 -5 -8 -6 -18 -9 -23 -6 -8 5 -70 -8 -102 -21 -8 -4 -19 -8 -25 -9 -5 -1 -12 -3 -15 -4 -3 -1 -16 -4 -30 -5 -14 -2 -38 -9 -55 -16 -16 -7 -38 -13 -48 -14 -10 -2 -28 -7 -40 -13 -63 -29 -97 -42 -114 -42 -10 0 -49 -16 -86 -35 -38 -19 -72 -33 -77 -30 -4 2 -18 -3 -31 -13 -37 -26 -67 -42 -83 -42 -7 0 -24 -8 -37 -18 -13 -11 -35 -22 -49 -25 -14 -4 -48 -24 -76 -45 -28 -21 -69 -47 -90 -57 -21 -10 -43 -24 -47 -31 -4 -8 -14 -14 -22 -14 -18 0 -127 -76 -138 -96 -4 -7 -15 -14 -22 -14 -8 0 -15 -5 -15 -10 0 -6 -8 -13 -17 -17 -26 -9 -181 -140 -193 -163 -6 -11 -17 -20 -24 -20 -7 0 -35 -25 -62 -56 -27 -30 -73 -79 -101 -107 -29 -29 -53 -58 -53 -64 0 -7 -13 -22 -30 -35 -16 -12 -30 -26 -30 -30 0 -5 -16 -25 -35 -45 -19 -20 -35 -41 -35 -48 0 -7 -11 -23 -24 -37 -12 -14 -26 -33 -29 -42 -4 -9 -11 -16 -17 -16 -5 0 -10 -7 -10 -15 0 -9 -7 -18 -15 -21 -8 -3 -19 -21 -25 -39 -6 -18 -22 -46 -37 -61 -14 -15 -33 -47 -43 -70 -10 -23 -35 -66 -54 -94 -20 -29 -36 -60 -36 -70 0 -10 -7 -23 -15 -30 -8 -7 -15 -21 -15 -31 0 -10 -4 -21 -10 -24 -5 -3 -10 -14 -10 -23 0 -10 -8 -29 -17 -42 -10 -14 -18 -29 -18 -35 0 -5 -9 -26 -19 -45 -10 -19 -20 -42 -21 -50 -1 -8 -10 -33 -20 -55 -10 -22 -19 -47 -20 -55 -1 -8 -4 -22 -8 -30 -18 -42 -35 -99 -30 -104 3 -3 1 -11 -5 -18 -9 -12 -31 -101 -34 -138 0 -8 -4 -19 -8 -25 -4 -5 -11 -28 -14 -50 -4 -22 -9 -56 -13 -75 -3 -19 -6 -48 -7 -65 -1 -16 -6 -38 -10 -47 -5 -10 -5 -25 -2 -34 3 -8 2 -24 -4 -33 -23 -44 -29 -491 -9 -642 5 -41 10 -85 10 -99 0 -14 3 -32 6 -40 4 -8 8 -31 10 -50 4 -49 8 -74 14 -85 3 -6 6 -25 8 -44 1 -19 5 -39 9 -45 3 -6 8 -26 9 -44 1 -19 7 -40 13 -47 7 -8 9 -18 6 -23 -3 -5 1 -19 7 -33 7 -13 14 -36 15 -52 1 -15 9 -44 19 -65 9 -20 17 -41 18 -47 2 -12 13 -40 31 -82 8 -17 14 -36 14 -42 0 -6 4 -19 9 -29 5 -9 13 -28 18 -42 19 -50 96 -215 121 -260 5 -8 19 -37 32 -64 13 -26 37 -65 53 -85 16 -20 34 -48 39 -63 6 -16 14 -28 19 -28 6 0 15 -13 20 -30 6 -16 15 -30 20 -30 4 0 15 -15 24 -34 9 -19 23 -37 31 -40 8 -3 14 -12 14 -20 0 -7 7 -16 15 -20 8 -3 15 -12 15 -20 0 -9 9 -20 20 -26 11 -6 20 -17 20 -25 0 -8 9 -19 20 -25 11 -6 20 -17 20 -25 0 -8 11 -22 25 -31 14 -9 25 -21 25 -28 0 -12 240 -256 252 -256 4 0 30 -22 58 -50 28 -27 58 -50 65 -50 8 0 19 -9 25 -20 6 -11 17 -20 26 -20 8 0 17 -7 20 -15 4 -8 11 -15 18 -15 6 0 22 -12 35 -25 13 -14 28 -25 35 -25 6 0 21 -11 33 -23 12 -13 50 -38 85 -56 34 -18 72 -41 83 -51 11 -10 49 -32 85 -49 36 -17 72 -35 80 -39 24 -14 193 -95 215 -103 11 -4 41 -17 66 -28 25 -12 54 -21 65 -21 10 0 28 -7 38 -15 10 -8 23 -12 28 -9 5 3 14 1 21 -4 18 -14 108 -42 117 -37 4 3 21 -2 36 -10 16 -8 41 -15 56 -15 15 0 30 -5 33 -11 4 -6 14 -8 22 -5 9 4 21 2 27 -4 7 -5 32 -12 57 -14 24 -3 64 -10 88 -16 24 -6 51 -8 61 -5 10 3 21 1 25 -5 3 -6 23 -10 43 -10 20 0 57 -3 82 -6 94 -12 506 -15 585 -4 44 6 93 11 109 11 16 0 35 4 42 10 7 6 18 8 24 4 10 -6 158 19 190 32 8 4 22 8 30 9 63 13 117 25 130 31 8 4 22 7 30 8 25 3 94 27 107 37 7 5 16 7 21 4 5 -3 22 4 39 14 17 10 55 26 84 34 28 9 58 21 66 27 7 7 16 9 20 6 3 -4 17 3 31 13 13 11 33 20 43 20 10 0 21 5 24 10 3 6 14 10 24 10 10 0 24 7 31 15 7 8 20 15 30 15 10 0 41 16 70 36 28 19 71 44 94 54 23 10 55 29 70 43 15 15 43 31 61 37 18 6 36 17 39 25 3 8 12 15 20 15 7 0 16 7 20 15 3 8 10 15 15 15 6 0 22 11 37 25 15 14 32 25 39 25 7 0 28 16 48 35 20 19 40 35 45 35 5 0 22 16 36 35 15 19 33 35 41 35 8 0 35 25 61 55 26 30 53 55 59 55 14 0 105 92 105 107 0 7 16 24 35 39 19 14 35 31 35 37 0 5 23 32 50 59 28 27 50 56 50 64 0 8 7 17 15 20 8 4 15 11 15 16 0 5 13 22 29 38 15 16 36 45 45 64 9 20 20 36 25 36 4 0 23 29 41 66 19 36 40 70 47 76 7 6 13 15 13 20 0 6 11 23 25 40 13 16 29 46 35 67 5 21 17 44 25 51 8 7 15 20 15 30 0 9 13 37 29 61 16 24 27 47 24 52 -3 4 2 16 10 25 18 21 67 139 60 146 -3 2 2 15 11 28 9 12 16 32 16 45 0 12 4 24 9 27 10 7 45 124 43 148 0 10 3 20 8 23 5 3 7 12 4 19 -3 8 -1 17 5 21 6 3 11 19 11 35 0 16 5 32 10 35 6 4 8 16 5 26 -4 11 -1 26 5 34 6 8 9 19 5 25 -4 6 -2 16 3 23 13 16 33 134 25 152 -3 9 0 21 6 29 6 8 11 31 11 52 0 22 4 84 9 139 9 92 7 360 -4 465 -3 25 -5 62 -5 84 1 21 -4 44 -11 52 -6 7 -8 18 -4 24 6 10 -19 169 -32 200 -3 8 -7 30 -9 48 -2 19 -7 39 -12 45 -4 7 -9 25 -10 41 -1 16 -7 35 -13 42 -6 7 -8 18 -5 23 4 5 2 12 -4 16 -5 3 -10 16 -10 28 0 12 -7 35 -15 51 -8 15 -13 31 -10 36 2 4 -2 16 -10 26 -8 10 -15 27 -15 37 0 18 -10 45 -45 122 -8 17 -17 41 -20 55 -4 14 -13 32 -19 40 -7 8 -18 33 -25 55 -7 22 -19 47 -26 55 -7 8 -16 25 -20 38 -10 35 -81 157 -120 208 -19 25 -35 52 -35 60 0 8 -9 22 -20 31 -11 10 -20 21 -20 25 0 4 -12 20 -26 35 -15 15 -31 40 -36 56 -6 15 -19 32 -29 38 -10 5 -19 16 -19 24 0 8 -9 19 -20 25 -11 6 -20 17 -20 25 0 8 -9 19 -20 25 -11 6 -20 17 -20 24 0 15 -277 306 -291 306 -5 0 -34 25 -65 55 -32 30 -63 55 -70 55 -7 0 -18 9 -24 20 -6 11 -17 20 -26 20 -8 0 -17 7 -20 15 -4 8 -12 15 -20 15 -7 0 -17 6 -21 14 -13 22 -134 102 -226 150 -47 25 -109 61 -137 80 -29 20 -60 36 -70 36 -10 0 -23 6 -29 14 -7 8 -24 17 -39 20 -24 6 -84 31 -134 57 -10 5 -24 9 -31 9 -7 0 -19 6 -25 12 -7 7 -18 13 -25 13 -7 1 -30 9 -52 19 -22 10 -50 18 -63 18 -12 0 -25 4 -28 9 -3 5 -13 9 -23 9 -10 0 -31 7 -47 14 -15 8 -31 13 -36 10 -5 -3 -14 -1 -21 4 -16 14 -128 42 -139 36 -5 -3 -14 -1 -21 4 -16 13 -193 43 -212 36 -8 -4 -21 -1 -29 5 -7 6 -29 11 -47 11 -19 0 -52 2 -74 5 -63 8 -420 16 -427 10z m-1067 -1985 c19 -11 19 -26 19 -628 l-1 -617 -24 -49 c-13 -27 -22 -54 -19 -58 3 -5 1 -14 -4 -21 -12 -15 -72 -197 -77 -234 -2 -15 -13 -45 -24 -66 -11 -21 -17 -45 -15 -52 3 -7 1 -16 -5 -20 -6 -3 -11 -16 -11 -28 0 -12 -7 -31 -15 -41 -8 -10 -12 -23 -9 -28 3 -5 1 -14 -4 -21 -5 -7 -22 -52 -37 -102 -15 -49 -30 -97 -33 -105 -2 -8 -6 -25 -8 -37 -1 -12 -10 -33 -19 -46 -14 -22 -19 -43 -24 -95 0 -8 -6 -12 -11 -10 -7 2 -10 380 -10 1128 0 1067 0 1125 17 1132 29 11 292 9 314 -2z m845 2 c14 -8 12 -36 -4 -75 -7 -16 -12 -37 -12 -47 0 -10 -4 -21 -10 -25 -5 -3 -7 -12 -4 -19 3 -8 1 -17 -5 -21 -6 -3 -11 -16 -11 -29 0 -12 -4 -26 -10 -32 -5 -5 -12 -26 -14 -46 -3 -21 -12 -48 -21 -62 -9 -13 -17 -35 -19 -48 -1 -12 -8 -36 -14 -51 -7 -16 -12 -37 -12 -47 0 -10 -4 -21 -10 -25 -5 -3 -7 -12 -4 -19 3 -8 1 -17 -5 -21 -6 -3 -11 -14 -11 -24 0 -10 -7 -32 -16 -49 -8 -17 -16 -42 -17 -54 -2 -13 -8 -33 -15 -46 -7 -13 -14 -33 -16 -45 -1 -12 -8 -35 -14 -50 -7 -16 -12 -37 -12 -47 0 -10 -4 -21 -10 -25 -5 -3 -7 -12 -4 -19 3 -8 1 -17 -5 -21 -6 -3 -11 -14 -11 -24 0 -10 -7 -32 -16 -49 -8 -17 -16 -42 -17 -54 -2 -13 -8 -33 -15 -46 -7 -13 -14 -33 -16 -45 -1 -12 -8 -35 -14 -50 -7 -16 -12 -37 -12 -47 0 -10 -5 -22 -10 -25 -6 -4 -8 -11 -4 -16 3 -5 1 -15 -4 -22 -10 -13 -44 -111 -47 -136 -1 -9 -9 -32 -17 -51 -9 -19 -14 -38 -11 -43 2 -4 0 -13 -5 -20 -12 -16 -32 -78 -37 -117 -2 -17 -12 -46 -20 -63 -22 -42 -58 -157 -57 -179 0 -10 -3 -20 -9 -23 -5 -4 -9 -15 -9 -25 0 -10 -5 -31 -12 -47 -6 -15 -10 -32 -9 -36 0 -4 -9 -31 -22 -60 -13 -29 -29 -74 -36 -102 -7 -27 -15 -57 -19 -65 -3 -8 -4 -19 -3 -24 1 -4 -2 -13 -7 -20 -13 -15 -32 -78 -37 -117 -3 -17 -13 -49 -24 -69 -11 -21 -17 -40 -15 -43 3 -3 -2 -17 -11 -31 -9 -14 -16 -29 -16 -33 1 -4 -3 -8 -9 -7 -5 1 -73 2 -149 3 -118 1 -140 3 -145 17 -4 9 -2 22 4 29 5 6 12 28 14 48 3 20 12 47 21 61 9 13 17 35 19 48 1 12 8 36 14 51 7 16 12 37 12 47 0 10 5 22 10 25 6 4 8 10 5 15 -3 5 4 30 15 55 27 59 63 175 62 197 0 10 3 20 9 23 5 4 9 14 9 24 0 10 7 32 16 49 8 17 16 42 18 54 1 13 10 39 18 58 9 19 14 38 11 43 -2 4 0 13 5 20 12 16 32 78 37 116 2 17 11 41 20 55 9 13 17 35 19 48 1 12 8 36 14 51 7 16 12 37 12 47 0 10 4 21 10 25 5 3 7 12 4 19 -3 8 -1 17 5 21 6 3 11 14 11 24 0 10 7 32 16 49 8 17 16 42 18 54 1 13 10 39 18 57 9 19 14 40 11 47 -2 7 0 15 6 19 6 3 11 14 11 24 0 10 7 32 16 49 8 17 16 42 18 54 1 13 10 39 18 58 9 19 14 38 11 43 -2 4 0 13 5 20 12 16 32 79 37 118 3 17 13 49 24 69 11 21 18 40 15 43 -2 2 2 17 11 33 8 16 15 39 15 51 0 12 4 24 10 28 5 3 7 12 4 19 -3 8 -1 17 5 21 6 3 11 14 11 24 0 10 7 32 16 49 8 17 16 42 18 54 1 13 10 39 18 57 9 19 14 40 11 47 -2 7 0 15 6 19 6 3 11 16 11 29 0 12 4 26 10 32 5 5 11 23 13 39 5 44 58 154 76 158 28 8 256 7 267 -1z m817 -4 c16 -12 17 -105 17 -1317 0 -717 -1 -1306 -4 -1308 -2 -3 -86 -4 -186 -4 l-182 0 -14 26 c-8 15 -14 36 -14 46 0 10 -5 21 -11 24 -6 4 -8 13 -5 21 3 7 1 16 -4 19 -6 4 -10 14 -10 24 0 23 -49 172 -62 188 -5 7 -7 17 -4 22 4 5 2 12 -4 16 -5 3 -10 15 -10 25 0 10 -5 31 -12 47 -6 15 -13 39 -14 51 -2 13 -10 35 -19 48 -9 14 -18 38 -20 55 -5 38 -25 100 -37 116 -5 7 -7 16 -5 20 3 5 -2 24 -11 43 -8 19 -16 42 -17 51 -3 25 -37 123 -47 136 -5 7 -7 16 -5 20 3 5 -2 24 -11 43 -8 19 -17 45 -18 58 -2 12 -10 37 -18 54 -9 17 -16 39 -16 49 0 10 -5 21 -11 24 -6 4 -8 13 -5 21 3 7 1 16 -4 19 -6 4 -10 15 -10 25 0 10 -5 31 -12 47 -6 15 -12 35 -13 43 -1 8 -12 37 -24 63 -12 26 -19 52 -16 57 3 5 1 11 -5 15 -5 3 -10 15 -10 25 0 10 -5 31 -12 47 -6 15 -13 39 -14 51 -2 13 -9 34 -17 46 -20 30 -7 102 51 276 2 8 6 25 8 37 1 12 9 32 18 45 9 13 18 42 21 63 7 60 55 86 55 30 0 -13 5 -27 11 -30 6 -4 8 -13 5 -20 -2 -7 2 -21 9 -32 8 -10 15 -28 15 -40 0 -12 5 -25 10 -28 6 -4 10 -12 9 -18 -2 -13 4 -31 28 -85 8 -19 12 -36 10 -39 -6 -5 22 -93 35 -109 5 -7 8 -16 6 -20 -3 -12 22 -86 34 -101 5 -7 7 -16 4 -21 -2 -4 6 -32 20 -60 14 -29 22 -56 19 -61 -3 -6 -1 -12 5 -16 5 -3 10 -16 10 -28 0 -12 7 -35 15 -51 8 -15 13 -31 10 -36 -2 -4 2 -16 10 -26 8 -10 15 -29 15 -41 0 -12 5 -25 11 -28 6 -4 8 -13 5 -20 -2 -7 4 -31 15 -52 11 -21 22 -47 23 -58 2 -11 6 -27 8 -35 3 -8 14 -43 24 -78 11 -35 24 -62 29 -60 7 2 11 295 12 843 2 794 3 840 20 847 33 13 298 9 316 -4z m1250 3 c17 -6 19 -20 19 -140 0 -101 -3 -136 -14 -142 -7 -5 -66 -9 -131 -9 l-117 0 2 -1022 3 -1023 128 -5 129 -5 0 -138 c1 -76 -1 -140 -4 -143 -3 -2 -198 -5 -434 -5 l-429 0 0 147 0 147 128 -2 127 -2 0 1025 0 1026 -118 0 c-78 0 -122 4 -130 12 -8 8 -12 53 -12 134 0 98 3 126 16 138 14 14 65 16 417 15 221 0 410 -4 420 -8z"/></g></svg>